<svg width="70" height="55" viewBox="0 0 70 55" fill="none" xmlns="http://www.w3.org/2000/svg">
<path d="M61.9432 18.9449C59.9296 18.9449 57.9148 19.4461 56.4039 19.946C54.3904 16.9427 50.8647 15.9403 48.3471 15.9403C44.8215 15.9403 41.2971 16.4415 38.2742 17.9426C38.2742 16.9427 38.7783 15.9403 38.7783 14.938C38.7783 14.4811 37.5139 14.0218 36.9133 12.7966C37.5385 12.4272 38.0454 11.8889 38.3749 11.2442C38.7044 10.5996 38.8429 9.87508 38.7744 9.15515C38.7059 8.43521 38.4331 7.74944 37.9879 7.17766C37.5426 6.60588 36.9432 6.17162 36.2594 5.92544C36.1656 5.92125 36.0738 5.89644 35.9907 5.85279H35.9808V4.06112H38.2656V2.47879H35.9845V0H34.3895V2.47879H32.1097V4.06112H34.3895V5.85279H34.2458V5.88604C33.4792 6.05019 32.7831 6.44809 32.2547 7.02429C31.7262 7.60048 31.3918 8.32626 31.2978 9.10047C31.2039 9.87467 31.3552 10.6587 31.7307 11.3433C32.1062 12.0279 32.6872 12.579 33.3926 12.9197C32.6384 13.7485 31.2242 14.5205 31.2242 14.938C31.2242 15.9403 32.231 16.9427 32.231 17.9426C27.498 15.6596 17.0412 14.1253 14.1013 19.946C12.5905 19.4461 10.5757 18.9449 8.56208 18.9449C4.53367 18.9449 0 21.4483 0 26.4564C0 30.9633 3.02162 32.9668 5.03645 35.4702C6.54726 36.9725 7.20978 37.1535 7.7138 39.1569L7.20111 41.9251C6.95344 42.0803 8.56332 41.8808 9.05867 42.4817C10.5695 43.4816 11.5775 44.9851 12.5843 46.9874L15.1031 54.4988C15.1031 55 15.6059 55 15.6059 55H16.1099C26.9159 51.61 42.8265 51.525 53.8802 55H54.3842C54.887 55 54.887 55 54.887 54.4988L57.4058 46.9874C58.4126 44.9851 59.4194 43.9828 60.4274 42.9816L62.945 40.9794C62.945 39.9771 62.685 39.4131 63.1927 38.4107C63.9023 36.9429 65.9716 34.9628 67.4824 32.9668C68.9932 31.4645 70 29.461 70 26.4564C70.0012 21.4533 65.4688 18.9449 61.9432 18.9449ZM20.6486 43.4828C19.6418 43.4828 19.1377 41.4793 18.131 41.4793C17.6269 41.4793 17.6269 41.4794 17.6269 41.9805C17.6269 42.9816 17.6269 44.4839 16.6189 44.4839C15.1093 44.4839 14.1013 42.4817 13.5973 40.9782V38.4748C10.4828 37.8664 6.01971 31.4743 6.04324 27.4575C6.04324 24.9541 7.55528 23.9518 10.0729 23.9518C11.0797 23.9518 12.0865 24.4542 13.0945 24.4542C13.0945 27.9587 15.1093 29.9622 17.1229 32.4656C17.6269 33.4667 18.1297 33.9679 18.6337 34.9702C19.1377 35.9726 18.6337 36.9725 19.1377 36.9725C19.1377 37.4736 22.1581 38.9759 22.1594 41.4793C22.1594 42.4817 21.6553 43.4828 20.6486 43.4828ZM31.7282 42.4817C30.2174 42.4817 30.2174 39.9771 29.7146 39.9771C28.2026 39.9771 29.2094 42.4817 27.1958 42.4817C25.6838 42.4817 24.677 39.4771 24.677 37.9736C24.677 36.9737 25.181 35.4702 25.181 35.4702C24.1742 34.9702 18.635 30.9633 18.635 25.4553C18.635 22.4507 21.1526 20.9484 24.1742 20.9484C26.6918 20.9484 30.7202 21.9495 32.735 23.4518V27.9587C32.735 32.4656 31.7282 33.9679 31.7282 34.9702C31.7282 35.4702 33.7418 36.9725 33.7418 39.4771C33.7418 40.9782 33.239 42.4817 31.7282 42.4817ZM45.3243 35.4702C44.8215 35.4702 45.3243 36.9725 45.3243 37.9736C45.3243 39.4771 44.8215 42.4817 42.8067 42.4817C40.7919 42.4817 41.7999 39.9771 40.7931 39.9771C39.7863 39.9771 39.785 42.4817 38.2742 42.4817C36.7634 42.4817 36.7634 40.9782 36.7634 39.4771C36.7634 36.9725 38.2742 35.4702 38.2742 34.969C38.2742 33.9679 37.2674 32.4656 37.2674 27.9587V23.4518C41.4321 21.1491 51.209 18.4031 51.3675 25.4553C51.3675 30.9645 45.8283 34.9702 45.3243 35.4702ZM60.4324 35.4702C59.4804 36.7049 58.2795 37.7283 56.9067 38.4748C56.9067 38.9759 57.6138 39.7542 57.0653 41.3069C56.5476 42.7464 54.8919 44.4876 53.8851 44.4876C52.3743 44.4876 52.3743 42.9853 52.3743 41.9842C52.3743 41.483 52.3743 41.483 51.8715 41.483C51.3687 41.483 50.8635 43.4853 49.3527 43.4853C48.3459 43.4853 47.8419 42.4854 47.8419 41.483C47.8419 38.9796 50.8635 37.4773 51.3675 36.9762V34.969C51.8715 33.9679 52.3743 33.4679 53.3811 32.4656C55.3959 29.9622 56.9067 27.9587 56.9067 24.4542C57.9135 24.4542 59.4243 23.9518 60.4324 23.9518C62.95 23.9518 64.4608 24.9541 64.4608 27.4575C64.462 30.4621 62.4472 33.4679 60.4324 35.4702Z" fill="#B0935B"/>
</svg>
