<svg width="60" height="60" viewBox="0 0 60 60" fill="none" xmlns="http://www.w3.org/2000/svg">
<path fill-rule="evenodd" clip-rule="evenodd" d="M36 26.5C36 32.299 31.299 37 25.5 37C19.701 37 15 32.299 15 26.5C15 20.701 19.701 16 25.5 16C31.299 16 36 20.701 36 26.5ZM34.8423 34.8051C32.5527 37.3788 29.2157 39 25.5 39C18.5964 39 13 33.4036 13 26.5C13 19.5964 18.5964 14 25.5 14C32.4036 14 38 19.5964 38 26.5C38 29.2354 37.1214 31.7656 35.6309 33.8237C35.7171 33.8235 35.8041 33.8371 35.8886 33.8652L37.3116 34.3396C37.4589 34.3887 37.5927 34.4714 37.7025 34.5812L46.0208 42.8995C46.4113 43.29 46.4113 43.9232 46.0208 44.3137L45.3137 45.0208C44.9232 45.4114 44.29 45.4114 43.8995 45.0208L35.5811 36.7025C35.4714 36.5927 35.3887 36.4589 35.3396 36.3116L34.8652 34.8886C34.856 34.861 34.8484 34.8331 34.8423 34.8051Z" fill="#030E14"/>
</svg>
