<svg width="305" height="236" viewBox="0 0 305 236" fill="none" xmlns="http://www.w3.org/2000/svg">
<path d="M0 182.026V146.847H10.6929C15.5669 146.847 18.5004 147.742 20.5349 149.767C22.0957 151.365 22.9948 153.675 22.9948 156.03C22.9948 161.166 19.2573 163.141 17.8341 163.895C21.5727 165.591 23.7976 168.274 23.7976 172.325C23.7976 174.915 22.7563 177.364 20.911 179.247C18.7814 181.367 16.6529 182.026 11.9211 182.026H0ZM9.60458 161.163C13.8627 161.163 15.4717 159.986 15.4717 156.925C15.4717 153.957 13.6746 152.587 9.88899 152.587H7.19168V161.157L9.60458 161.163ZM10.2674 176.277C14.0049 176.277 16.0394 174.582 16.0394 171.427C16.0394 167.329 12.7755 166.906 9.7938 166.906H7.19168V176.277H10.2674Z" fill="#B0935B"/>
<path d="M37.48 182.026V146.847H59.9071V152.97H44.6717V160.928H56.454V167.051H44.6717V175.904H60.2385V182.026H37.48Z" fill="#B0935B"/>
<path d="M80.3448 168.743C80.3448 174.108 81.8597 176.231 85.7864 176.231C87.8209 176.231 90.8966 174.96 90.8966 171.24C90.8989 170.706 90.8671 170.172 90.8015 169.642H97.9461C98.0152 170.299 98.047 170.959 98.0413 171.62C98.0413 179.201 92.7889 182.875 85.0295 182.875C76.4181 182.875 72.5854 178.118 72.5854 165.121C72.5854 154.619 73.3882 146.001 86.0227 146.001C94.6341 146.001 97.1892 152.076 97.1892 156.596C97.2073 157.556 97.1598 158.516 97.047 159.469H90.0916C90.2134 158.643 90.2767 157.809 90.2808 156.974C90.2808 154.006 88.8622 151.793 85.5502 151.793C81.2909 151.793 80.3448 154.431 80.3448 159.327V168.743Z" fill="#B0935B"/>
<path d="M111.495 182.026V146.847H118.687V160.881H128.766V146.847H135.957V182.026H128.766V166.626H118.687V182.026H111.495Z" fill="#B0935B"/>
<path d="M150.263 170.912H156.366C156.279 171.552 156.231 172.197 156.224 172.842C156.224 175.715 158.258 176.799 160.672 176.799C164.22 176.799 165.214 174.774 165.214 172.56C165.214 169.829 162.564 168.274 159.584 167.003C157.597 166.156 150.263 163.989 150.263 156.218C150.263 149.862 153.764 146 161.808 146C168.385 146 171.176 148.872 171.176 155.23C171.164 156.128 171.101 157.024 170.987 157.914H164.741C164.853 157.166 164.916 156.41 164.93 155.653C164.93 154.241 164.552 152.028 161.146 152.028C158.355 152.028 157.408 153.44 157.408 155.277C157.408 157.914 158.969 159.186 162.944 160.786C167.302 162.529 172.359 164.696 172.359 172.277C172.359 178.588 169.047 182.827 160.72 182.827C153.765 182.827 150.122 179.765 150.122 173.314C150.12 172.282 150.263 170.912 150.263 170.912Z" fill="#B0935B"/>
<path d="M182.633 152.97V146.847H207.331V152.97H198.529V182.026H191.338V152.97H182.633Z" fill="#B0935B"/>
<path d="M219.715 182.026V146.847H242.142V152.97H226.907V160.928H238.689V167.051H226.907V175.904H242.473V182.026H219.715Z" fill="#B0935B"/>
<path d="M256.558 146.847H263.749V182.026H256.558V146.847Z" fill="#B0935B"/>
<path d="M279.733 182.026V146.847H287.162L298.328 169.499V146.847H305V182.026H298.47L286.404 157.914V182.026H279.733Z" fill="#B0935B"/>
<path d="M88.2358 236V200.818H95.4298V214.858H105.508V200.818H112.7V235.998H105.508V220.599H95.4298V236H88.2358Z" fill="#B0935B"/>
<path d="M124.77 236L135.037 200.821H144.123L154.201 236H147.008L144.784 228.041H133.431L131.211 236H124.77ZM143.27 222.861L139.009 207.932L134.845 222.861H143.27Z" fill="#B0935B"/>
<path d="M164.361 236V200.818H171.553V229.875H186.221V235.998L164.361 236Z" fill="#B0935B"/>
<path d="M194.905 236V200.818H202.096V229.875H216.763V235.998L194.905 236Z" fill="#B0935B"/>
<path d="M206.771 38.2343C202.715 38.2343 198.657 39.2458 195.614 40.2547C191.558 34.1934 184.456 32.1705 179.385 32.1705C172.283 32.1705 165.184 33.182 159.095 36.2114C159.095 34.1934 160.11 32.1705 160.11 30.1476C160.11 29.2256 157.564 28.2986 156.354 25.8259C157.613 25.0805 158.634 23.994 159.298 22.6929C159.962 21.3918 160.241 19.9297 160.103 18.4768C159.965 17.0238 159.415 15.6398 158.518 14.4858C157.622 13.3319 156.414 12.4555 155.037 11.9586C154.848 11.9502 154.663 11.9001 154.496 11.812H154.476V8.19608H159.078V5.00264H154.483V0H151.27V5.00264H146.678V8.19608H151.27V11.812H150.981V11.8791C149.437 12.2104 148.035 13.0134 146.97 14.1763C145.906 15.3392 145.232 16.8039 145.043 18.3664C144.854 19.9289 145.158 21.5112 145.915 22.8929C146.671 24.2746 147.841 25.3868 149.262 26.0744C147.743 27.7469 144.894 29.3051 144.894 30.1476C144.894 32.1705 146.922 34.1934 146.922 36.2114C137.389 31.6039 116.326 28.5074 110.404 40.2547C107.361 39.2458 103.302 38.2343 99.2465 38.2343C91.1321 38.2343 82 43.2866 82 53.3938C82 62.4895 88.0864 66.5329 92.1448 71.5852C95.188 74.6171 96.5226 74.9825 97.5378 79.0258L96.5051 84.6125C96.0062 84.9256 99.249 84.523 100.247 85.7358C103.29 87.7538 105.32 90.7881 107.348 94.829L112.422 109.989C112.422 111 113.435 111 113.435 111H114.45C136.216 104.158 168.265 103.987 190.53 111H191.545C192.558 111 192.558 111 192.558 109.989L197.632 94.829C199.66 90.7881 201.688 88.7652 203.718 86.7448L208.789 82.7039C208.789 80.681 208.265 79.5428 209.288 77.5198C210.717 74.5575 214.886 70.5614 217.929 66.5329C220.972 63.501 223 59.4576 223 53.3938C223.002 43.2966 213.873 38.2343 206.771 38.2343ZM123.592 87.7562C121.564 87.7562 120.549 83.7129 118.521 83.7129C117.506 83.7129 117.506 83.7129 117.506 84.7243C117.506 86.7448 117.506 89.7767 115.475 89.7767C112.434 89.7767 110.404 85.7358 109.389 82.7014V77.649C103.115 76.4214 94.1254 63.5209 94.1728 55.4143C94.1728 50.3619 97.2185 48.339 102.29 48.339C104.318 48.339 106.346 49.3529 108.376 49.3529C108.376 56.4257 112.435 60.4691 116.49 65.5214C117.506 67.5419 118.518 68.5533 119.534 70.5763C120.549 72.5992 119.534 74.6171 120.549 74.6171C120.549 75.6286 126.633 78.6605 126.635 83.7129C126.635 85.7358 125.62 87.7562 123.592 87.7562ZM145.91 85.7358C142.867 85.7358 142.867 80.681 141.854 80.681C138.808 80.681 140.836 85.7358 136.78 85.7358C133.734 85.7358 131.706 79.672 131.706 76.6376C131.706 74.6196 132.722 71.5852 132.722 71.5852C130.694 70.5763 119.536 62.4895 119.536 51.3734C119.536 45.3096 124.607 42.2777 130.694 42.2777C135.765 42.2777 143.879 44.2981 147.938 47.33V56.4257C147.938 65.5214 145.91 68.5533 145.91 70.5763C145.91 71.5852 149.966 74.6171 149.966 79.672C149.966 82.7014 148.953 85.7358 145.91 85.7358ZM173.296 71.5852C172.283 71.5852 173.296 74.6171 173.296 76.6376C173.296 79.672 172.283 85.7358 168.225 85.7358C164.166 85.7358 166.197 80.681 164.169 80.681C162.141 80.681 162.138 85.7358 159.095 85.7358C156.052 85.7358 156.052 82.7014 156.052 79.672C156.052 74.6171 159.095 71.5853 159.095 70.5738C159.095 68.5533 157.067 65.5214 157.067 56.4257V47.33C165.456 42.6828 185.15 37.1408 185.469 51.3734C185.469 62.492 174.311 70.5763 173.296 71.5852ZM203.728 71.5852C201.811 74.0772 199.392 76.1425 196.626 77.649C196.626 78.6605 198.051 80.2311 196.946 83.3649C195.903 86.2701 192.568 89.7841 190.54 89.7841C187.497 89.7841 187.497 86.7522 187.497 84.7318C187.497 83.7203 187.497 83.7203 186.484 83.7203C185.471 83.7203 184.454 87.7612 181.41 87.7612C179.382 87.7612 178.367 85.7432 178.367 83.7203C178.367 78.668 184.454 75.6361 185.469 74.6246V70.5738C186.484 68.5533 187.497 67.5444 189.525 65.5214C193.583 60.4691 196.626 56.4257 196.626 49.3529C198.654 49.3529 201.698 48.339 203.728 48.339C208.799 48.339 211.842 50.3619 211.842 55.4143C211.845 61.4781 207.786 67.5444 203.728 71.5852Z" fill="#B0935B"/>
</svg>
